<svg xmlns="http://www.w3.org/2000/svg" width="74.48" height="99.373" viewBox="0 0 74.48 99.373"><defs><style>.a{fill:#e17000;}.b{fill:#c4670a;}.c{fill:#004484;}.d{fill:#003a71;}.e,.g{fill:none;stroke:#fff;stroke-width:3.5px;}.e{stroke-miterlimit:10;}.f{fill:#f6fafd;}.h{fill:#fff;opacity:0;}.i{fill:#fafcff;}.j{fill:#f7faff;}</style></defs><g transform="translate(-6.07 -14.631)"><g transform="translate(114.296 14.219)"><ellipse class="a" cx="18.943" cy="18.944" rx="18.943" ry="18.944" transform="translate(-74.596 3.153)"/><path class="b" d="M264.287,153.7a18.943,18.943,0,0,0,17.893-12.776A22.057,22.057,0,0,1,248.6,124.14,18.944,18.944,0,0,0,264.29,153.7Z" transform="translate(-319.94 -112.657)"/></g><g transform="translate(-108)"><path class="c" d="M197.523,191.338a33.64,33.64,0,0,1,3.548,41.993,34.239,34.239,0,0,1-40.439,12.858,33.786,33.786,0,0,1,8.993-65.34l.994-.369a18.518,18.518,0,0,0,10.813,11.277,18.727,18.727,0,0,0,15.657-.941Zm-12.4,41.684v-6.154a8.061,8.061,0,0,0-3.877-6.921,15.722,15.722,0,0,0-8.523-2.307,9.229,9.229,0,1,0-9.3-9.228,9.264,9.264,0,0,0,9.3,9.228c-6.2,0-12.4,3.077-12.4,9.228v6.154c0,2.705,2.232,3.074,4.961,3.074h14.879c2.729,0,4.961-.369,4.961-3.074Z" transform="translate(-21.209 -138.014)"/><path class="d" d="M175.867,285.048a33.95,33.95,0,0,1-34.1-33.8v-.037c0-.655.047-1.3.081-1.941a33.618,33.618,0,0,0,5.685,37.012,34.253,34.253,0,0,0,36.589,9.127,33.851,33.851,0,0,0,22.644-29.945,34.059,34.059,0,0,1-30.9,19.584Z" transform="translate(-21.248 -186.965)"/><ellipse class="c" cx="20" cy="20.5" rx="20" ry="20.5" transform="translate(131.842 54.068)"/></g><path class="e" d="M196.453,188.773l.175.247.88,1.107a36.275,36.275,0,0,1,7.9,22.252,35.478,35.478,0,1,1-41.192-35.018c.946-.171,1.507-.176,2.366-.358" transform="translate(-126.61 -135.606)"/><ellipse class="f" cx="2.559" cy="3.559" rx="2.559" ry="3.559" transform="translate(65.778 75.209) rotate(-45)"/><ellipse class="f" cx="1.28" cy="1.78" rx="1.28" ry="1.78" transform="translate(67.144 83.318) rotate(-45)"/><path class="g" d="M20.065,0h.167a20.067,20.067,0,1,1-.167,0Z" transform="translate(38.631 16.382)"/><path class="h" d="M241.029,107a22.337,22.337,0,0,0-.233,3.019c0,.669.041,1.329.1,1.98a18.626,18.626,0,0,0-2.53,15.369c-1.064.073-2.114.2-3.149.366A21.694,21.694,0,0,1,241.029,107Z" transform="translate(-197.608 -85.965)"/><path class="h" d="M356.639,173.422a21.849,21.849,0,0,0,3.9-3.042,21.763,21.763,0,0,1-9.291,14.968" transform="translate(-280.363 -130.914)"/><path class="i" d="M288.374,126.4h-6.2v-6.2a3.1,3.1,0,1,0-6.2,0v6.2h-6.206a3.1,3.1,0,1,0,0,6.206h6.206v6.2a3.1,3.1,0,1,0,6.2,0v-6.2h6.2a3.1,3.1,0,0,0,0-6.206Z" transform="translate(-220.372 -93.06)"/><path class="j" d="M238.147,318.628v6.206c0,2.728-2.233,3.1-4.964,3.1H218.294c-2.731,0-4.964-.372-4.964-3.1v-6.206c0-6.2,6.206-9.306,12.408-9.306a15.642,15.642,0,0,1,8.529,2.326A8.143,8.143,0,0,1,238.147,318.628Z" transform="translate(-182.55 -229.449)"/><circle class="j" cx="9.306" cy="9.306" r="9.306" transform="translate(33.882 61.264)"/></g></svg>